<?xml version="1.0" standalone="no"?>
<!DOCTYPE svg PUBLIC "-//W3C//DTD SVG 20010904//EN"
 "http://www.w3.org/TR/2001/REC-SVG-20010904/DTD/svg10.dtd">
<svg version="1.0" xmlns="http://www.w3.org/2000/svg"
 width="4211.000000pt" height="4211.000000pt" viewBox="0 0 4211.000000 4211.000000"
 preserveAspectRatio="xMidYMid meet">
<metadata>
Created by potrace 1.14, written by Peter Selinger 2001-2017
</metadata>
<g transform="translate(0.000000,4211.000000) scale(0.100000,-0.100000)"
fill="#000000" stroke="none">
<path d="M13540 26412 c-4034 -7286 -8720 -15749 -10413 -18807 -1693 -3058
-3090 -5579 -3103 -5602 l-25 -43 5059 0 5058 0 2081 3848 c1145 2116 2628
4857 3296 6092 668 1235 2138 3953 3267 6040 1129 2087 2067 3821 2084 3853
l33 57 780 -1432 c429 -788 1928 -3539 3330 -6113 1403 -2574 3489 -6405 4638
-8512 l2088 -3833 5018 0 c2761 0 5019 2 5019 5 0 4 -883 1600 -7945 14350
-5815 10500 -6939 12530 -9880 17840 -1659 2998 -3025 5462 -3034 5477 l-16
26 -7335 -13246z"/>
</g>
</svg>
