<?xml version="1.0" encoding="UTF-8"?>
<svg id="Layer_2" data-name="Layer 2" xmlns="http://www.w3.org/2000/svg" viewBox="0 0 3678.23 653">
  <defs>
    <style>
      .cls-1 {
        fill: #ae282c;
      }

      .cls-2 {
        fill: #d12e34;
      }

      .cls-3 {
        fill: #9a2528;
      }

      .cls-4 {
        fill: #de3037;
      }

      .cls-5 {
        fill: #c62c31;
      }

      .cls-6 {
        fill: #bb2a2f;
      }
    </style>
  </defs>
  <path id="a" class="cls-3" d="m3432.73,161.5c-135.59,0-245.5,109.91-245.5,245.5s109.91,245.5,245.5,245.5c45.03,0,87.23-12.14,123.51-33.3v.02s-.01,26.28-.01,26.28h122v-238.5c0-135.59-109.91-245.5-245.5-245.5Zm0,368c-67.65,0-122.5-54.85-122.5-122.5s54.85-122.5,122.5-122.5,122.5,54.85,122.5,122.5-54.85,122.5-122.5,122.5Z"/>
  <path id="m" class="cls-1" d="m2246.73,644h125v-254.24c.53-6.22,1.79-14.89,5-24.76,13.77-42.3,49.23-62.78,55-66,8.25-4.6,40.13-21.09,81-13,2.44.48,58.08,12.47,84,65,9.07,18.38,11.39,35.41,12,46v247h124v-250.03c.23-5.2.91-12.5,3-20.97,10.91-44.33,47.15-67.94,52-71,47.94-30.22,98.62-13.53,103-12,6.25,2.18,48.7,17.74,69,63,10.04,22.37,10.55,42.83,10,54v237.03h124c1.09-62.77,3.12-200.86,0-248.32-.35-5.37-.77-9.51-1-11.71-.28-2.63-5.24-46.79-22-84-12.89-28.6-42.57-74.88-97-107-20.75-12.25-81.44-43.88-161-31-81.43,13.19-129.22,64.37-142,79-14.61-16.42-57.6-60.37-129-76-90.36-19.79-160.65,19.82-176,29-57.59,34.43-84.8,83.54-95,105-16.38,34.45-21.36,65.83-23,86-.33,86.33-.67,172.67-1,259Z"/>
  <path id="o" class="cls-6" d="m1908.23,162c-135.59,0-245.5,109.91-245.5,245.5s109.91,245.5,245.5,245.5,245.5-109.91,245.5-245.5-109.91-245.5-245.5-245.5Zm-.5,367c-66.83,0-121-54.17-121-121s54.17-121,121-121,121,54.17,121,121-54.17,121-121,121Z"/>
  <path id="t" class="cls-5" d="m1574.73,644.63v-122.68c-10.62-.11-37.11-1.84-62.94-19.98-3.27-2.29-36.1-26.09-44.96-68.94-1.45-7.02-1.93-12.96-2.1-16.98v-134.05h109v-115h-110V0h-122v402.01c-.33,5.91-.55,14.18,0,24.02,3.73,66.7,37.76,113.85,47,125.98,8.82,11.57,42.58,53.62,104,77,33.23,12.65,62.76,15.34,82,15.63Z"/>
  <path id="u" class="cls-2" d="m750.73,167h126c0,84.33,0,168.67,0,253,.81,8.66,5.55,49.37,41,80,7.75,6.7,36.97,30.2,80,29,55.58-1.55,87.32-43.02,91-48,19.28-26.1,22.37-53.28,23-65v-250h125v255.01c-1.25,21.94-6.35,60.97-29,102.99-10.38,19.25-38.4,65.04-95,97-18.43,10.4-77.72,40.7-156,29-22.9-3.42-90.96-16.95-145-78-58.24-65.79-60.07-141.43-60-160-.33-81.67-.67-163.33-1-245Z"/>
  <polygon id="A" class="cls-4" points="715.84 647 358 1 0 647 171.61 647 357.92 310.54 545.36 647 715.84 647"/>
</svg>